<?xml version="1.0" encoding="utf-8"?>
<!-- Generator: Adobe Illustrator 23.1.0, SVG Export Plug-In . SVG Version: 6.00 Build 0)  -->
<svg version="1.1" id="Capa_1" xmlns="http://www.w3.org/2000/svg" xmlns:xlink="http://www.w3.org/1999/xlink" x="0px" y="0px"
	 viewBox="0 0 883.69 148.64" style="enable-background:new 0 0 883.69 148.64;" xml:space="preserve">
<style type="text/css">
	.st0{fill:#BB3162;}
	.st1{fill:#FFFFFF;}
	.st2{fill:#3A437A;}
</style>
<g>
	<g>
		<path class="st1" d="M342.99,136.41c0,2.02-0.38,3.8-1.13,5.33c-0.75,1.53-1.78,2.8-3.07,3.82c-1.29,1.02-2.8,1.79-4.52,2.31
			c-1.73,0.52-3.57,0.77-5.54,0.77c-1.33,0-2.56-0.11-3.71-0.33c-1.14-0.22-2.15-0.48-3.02-0.79c-0.87-0.31-1.6-0.63-2.19-0.97
			c-0.59-0.34-1.01-0.63-1.26-0.89c-0.26-0.26-0.44-0.63-0.55-1.12c-0.11-0.49-0.16-1.19-0.16-2.1c0-0.62,0.02-1.13,0.06-1.55
			c0.04-0.42,0.1-0.75,0.19-1.01s0.21-0.44,0.36-0.55c0.15-0.11,0.32-0.16,0.52-0.16c0.28,0,0.67,0.16,1.18,0.49
			c0.51,0.33,1.16,0.69,1.95,1.09c0.79,0.4,1.74,0.76,2.84,1.09c1.1,0.33,2.38,0.49,3.82,0.49c0.95,0,1.81-0.11,2.56-0.34
			c0.75-0.23,1.39-0.55,1.92-0.97c0.53-0.42,0.93-0.93,1.21-1.55c0.28-0.61,0.42-1.3,0.42-2.05c0-0.87-0.24-1.62-0.71-2.25
			c-0.48-0.62-1.1-1.18-1.86-1.67c-0.76-0.49-1.63-0.94-2.6-1.37c-0.97-0.43-1.97-0.88-3.01-1.35c-1.03-0.48-2.03-1.02-3.01-1.62
			c-0.97-0.6-1.84-1.33-2.6-2.17c-0.76-0.84-1.38-1.84-1.86-2.99c-0.48-1.15-0.71-2.53-0.71-4.14c0-1.85,0.34-3.47,1.03-4.87
			c0.68-1.4,1.61-2.56,2.77-3.48c1.16-0.92,2.53-1.61,4.11-2.07c1.58-0.46,3.25-0.68,5.02-0.68c0.91,0,1.83,0.07,2.74,0.21
			c0.91,0.14,1.77,0.33,2.56,0.56c0.79,0.24,1.5,0.51,2.11,0.8c0.62,0.3,1.02,0.55,1.22,0.74c0.2,0.2,0.33,0.37,0.4,0.51
			c0.07,0.14,0.13,0.32,0.18,0.55c0.05,0.23,0.08,0.52,0.1,0.86c0.02,0.35,0.03,0.78,0.03,1.3c0,0.58-0.01,1.06-0.04,1.46
			c-0.03,0.4-0.08,0.73-0.15,0.98c-0.07,0.26-0.17,0.45-0.3,0.57c-0.13,0.12-0.3,0.18-0.52,0.18c-0.22,0-0.57-0.14-1.04-0.42
			c-0.48-0.28-1.06-0.58-1.76-0.91c-0.69-0.33-1.5-0.63-2.41-0.89c-0.91-0.27-1.92-0.4-3.01-0.4c-0.85,0-1.6,0.1-2.23,0.31
			c-0.64,0.21-1.17,0.5-1.59,0.86c-0.43,0.37-0.74,0.81-0.95,1.33c-0.21,0.52-0.31,1.06-0.31,1.64c0,0.85,0.23,1.59,0.7,2.22
			c0.47,0.63,1.09,1.18,1.88,1.67s1.67,0.94,2.66,1.37s2,0.88,3.04,1.35c1.03,0.48,2.04,1.02,3.04,1.62
			c0.99,0.61,1.88,1.33,2.65,2.17c0.77,0.84,1.4,1.84,1.88,2.98C342.75,133.52,342.99,134.86,342.99,136.41z"/>
		<path class="st1" d="M403.45,112.66c0,0.58-0.03,1.07-0.07,1.47c-0.05,0.41-0.12,0.73-0.22,0.98c-0.1,0.25-0.22,0.43-0.37,0.55
			c-0.15,0.12-0.31,0.18-0.49,0.18h-9.64v31.04c0,0.2-0.06,0.38-0.19,0.54c-0.13,0.16-0.34,0.29-0.64,0.39
			c-0.3,0.1-0.7,0.18-1.21,0.24c-0.51,0.06-1.14,0.09-1.89,0.09c-0.75,0-1.38-0.03-1.89-0.09c-0.51-0.06-0.91-0.14-1.21-0.24
			c-0.3-0.1-0.51-0.23-0.64-0.39c-0.13-0.16-0.19-0.34-0.19-0.54v-31.04h-9.64c-0.2,0-0.37-0.06-0.51-0.18
			c-0.14-0.12-0.26-0.3-0.36-0.55c-0.1-0.25-0.17-0.58-0.22-0.98c-0.05-0.41-0.07-0.9-0.07-1.47c0-0.59,0.02-1.1,0.07-1.52
			c0.05-0.42,0.12-0.75,0.22-1c0.1-0.25,0.22-0.43,0.36-0.54c0.14-0.11,0.31-0.16,0.51-0.16h27.15c0.18,0,0.34,0.05,0.49,0.16
			c0.15,0.11,0.27,0.29,0.37,0.54c0.1,0.25,0.17,0.58,0.22,1C403.42,111.55,403.45,112.06,403.45,112.66z"/>
		<path class="st1" d="M459.53,145.04c0.24,0.71,0.39,1.28,0.45,1.7c0.06,0.42-0.02,0.73-0.24,0.94c-0.22,0.21-0.61,0.34-1.16,0.39
			c-0.56,0.05-1.32,0.07-2.29,0.07c-1.01,0-1.8-0.01-2.37-0.04c-0.57-0.03-1-0.09-1.29-0.18c-0.3-0.09-0.51-0.21-0.63-0.37
			c-0.12-0.16-0.22-0.37-0.3-0.62l-2.59-7.74h-14.47l-2.44,7.53c-0.08,0.28-0.18,0.51-0.31,0.7c-0.13,0.19-0.34,0.34-0.63,0.45
			c-0.29,0.11-0.69,0.18-1.22,0.22c-0.53,0.04-1.22,0.06-2.07,0.06c-0.91,0-1.63-0.03-2.14-0.09c-0.52-0.06-0.87-0.2-1.07-0.43
			c-0.2-0.23-0.27-0.55-0.21-0.97c0.06-0.42,0.21-0.97,0.45-1.67l11.88-34.17c0.12-0.34,0.26-0.61,0.42-0.82
			c0.16-0.21,0.41-0.37,0.76-0.48c0.35-0.11,0.83-0.18,1.44-0.21c0.62-0.03,1.43-0.04,2.44-0.04c1.17,0,2.1,0.01,2.8,0.04
			c0.69,0.03,1.23,0.1,1.62,0.21c0.39,0.11,0.66,0.27,0.83,0.49c0.17,0.22,0.31,0.52,0.43,0.89L459.53,145.04z M441.85,116.79h-0.03
			l-5.45,16.37h10.92L441.85,116.79z"/>
		<path class="st1" d="M509,112.66c0,0.58-0.03,1.07-0.07,1.47c-0.05,0.41-0.12,0.73-0.22,0.98c-0.1,0.25-0.22,0.43-0.37,0.55
			c-0.15,0.12-0.31,0.18-0.49,0.18h-9.64v31.04c0,0.2-0.06,0.38-0.19,0.54c-0.13,0.16-0.34,0.29-0.64,0.39
			c-0.3,0.1-0.7,0.18-1.21,0.24c-0.51,0.06-1.14,0.09-1.89,0.09c-0.75,0-1.38-0.03-1.89-0.09c-0.51-0.06-0.91-0.14-1.21-0.24
			c-0.3-0.1-0.51-0.23-0.64-0.39c-0.13-0.16-0.19-0.34-0.19-0.54v-31.04h-9.64c-0.2,0-0.37-0.06-0.51-0.18
			c-0.14-0.12-0.26-0.3-0.36-0.55c-0.1-0.25-0.17-0.58-0.22-0.98c-0.05-0.41-0.07-0.9-0.07-1.47c0-0.59,0.02-1.1,0.07-1.52
			c0.05-0.42,0.12-0.75,0.22-1c0.1-0.25,0.22-0.43,0.36-0.54c0.14-0.11,0.31-0.16,0.51-0.16h27.15c0.18,0,0.34,0.05,0.49,0.16
			c0.15,0.11,0.27,0.29,0.37,0.54c0.1,0.25,0.17,0.58,0.22,1C508.97,111.55,509,112.06,509,112.66z"/>
		<path class="st1" d="M565.85,136.41c0,2.02-0.38,3.8-1.13,5.33c-0.75,1.53-1.78,2.8-3.07,3.82c-1.29,1.02-2.8,1.79-4.52,2.31
			c-1.73,0.52-3.57,0.77-5.54,0.77c-1.33,0-2.56-0.11-3.71-0.33c-1.14-0.22-2.15-0.48-3.02-0.79c-0.87-0.31-1.6-0.63-2.19-0.97
			c-0.59-0.34-1.01-0.63-1.26-0.89c-0.26-0.26-0.44-0.63-0.55-1.12c-0.11-0.49-0.16-1.19-0.16-2.1c0-0.62,0.02-1.13,0.06-1.55
			c0.04-0.42,0.1-0.75,0.19-1.01c0.09-0.26,0.21-0.44,0.36-0.55c0.15-0.11,0.32-0.16,0.52-0.16c0.28,0,0.67,0.16,1.18,0.49
			c0.51,0.33,1.16,0.69,1.95,1.09c0.79,0.4,1.74,0.76,2.84,1.09c1.1,0.33,2.38,0.49,3.82,0.49c0.95,0,1.81-0.11,2.56-0.34
			c0.75-0.23,1.39-0.55,1.92-0.97c0.53-0.42,0.93-0.93,1.21-1.55c0.28-0.61,0.42-1.3,0.42-2.05c0-0.87-0.24-1.62-0.71-2.25
			c-0.48-0.62-1.1-1.18-1.86-1.67c-0.76-0.49-1.63-0.94-2.6-1.37c-0.97-0.43-1.97-0.88-3.01-1.35s-2.03-1.02-3.01-1.62
			c-0.97-0.6-1.84-1.33-2.6-2.17c-0.76-0.84-1.38-1.84-1.86-2.99c-0.48-1.15-0.71-2.53-0.71-4.14c0-1.85,0.34-3.47,1.03-4.87
			c0.68-1.4,1.61-2.56,2.77-3.48c1.16-0.92,2.53-1.61,4.11-2.07c1.58-0.46,3.25-0.68,5.02-0.68c0.91,0,1.83,0.07,2.74,0.21
			c0.91,0.14,1.77,0.33,2.56,0.56c0.79,0.24,1.5,0.51,2.11,0.8c0.62,0.3,1.02,0.55,1.22,0.74c0.2,0.2,0.33,0.37,0.4,0.51
			c0.07,0.14,0.13,0.32,0.18,0.55c0.05,0.23,0.08,0.52,0.1,0.86c0.02,0.35,0.03,0.78,0.03,1.3c0,0.58-0.01,1.06-0.04,1.46
			c-0.03,0.4-0.08,0.73-0.15,0.98c-0.07,0.26-0.17,0.45-0.3,0.57c-0.13,0.12-0.3,0.18-0.52,0.18c-0.22,0-0.57-0.14-1.04-0.42
			c-0.48-0.28-1.06-0.58-1.76-0.91c-0.69-0.33-1.5-0.63-2.41-0.89c-0.91-0.27-1.92-0.4-3.01-0.4c-0.85,0-1.6,0.1-2.23,0.31
			c-0.64,0.21-1.17,0.5-1.59,0.86c-0.43,0.37-0.74,0.81-0.95,1.33c-0.21,0.52-0.31,1.06-0.31,1.64c0,0.85,0.23,1.59,0.7,2.22
			c0.47,0.63,1.09,1.18,1.88,1.67s1.67,0.94,2.66,1.37c0.99,0.43,2,0.88,3.04,1.35c1.03,0.48,2.04,1.02,3.04,1.62
			c0.99,0.61,1.88,1.33,2.65,2.17c0.77,0.84,1.4,1.84,1.88,2.98C565.61,133.52,565.85,134.86,565.85,136.41z"/>
	</g>
	<path class="st1" d="M66.37,69.1v14.38H25.53c-4.03,0-7.82-0.92-11.27-2.65C9.2,78.3,5.06,74.16,2.65,69.1
		C0.92,65.65,0,61.85,0,57.83V2.96h14.38v56.25c0.69,5.06,4.72,9.09,9.78,9.78L66.37,69.1z"/>
	<path class="st1" d="M236.87,69.1v14.38h-40.83c-4.03,0-7.82-0.92-11.27-2.65c-5.06-2.53-9.2-6.67-11.62-11.73
		c-1.73-3.45-2.65-7.25-2.65-11.27V2.96h14.38v56.25c0.69,5.06,4.72,9.09,9.78,9.78L236.87,69.1z"/>
	<path class="st1" d="M252.75,43.1c0,14.26,11.62,25.88,25.88,25.88h40.26v14.38h-40.26c-22.2,0-40.26-18.06-40.26-40.26
		c0-22.2,18.06-40.26,40.26-40.26h40.26v14.38h-40.26C264.36,17.22,252.75,28.84,252.75,43.1z"/>
	<path class="st1" d="M410.9,2.85v80.51h-14.38V46.44h-51.76v36.92h-14.38V2.85h14.38v29.22h51.76V2.85H410.9z"/>
	<path class="st1" d="M499.92,83.36h-16.1l-7.36-14.38l-17.6-34.51l-17.6,34.51l-7.36,14.38h-16.1l7.36-14.38l33.7-66.14l33.7,66.14
		L499.92,83.36z"/>
	<path class="st1" d="M587.34,2.85v80.51h-14.38v-51.3l-14.15,10.81l-11.73,9.09l-11.73-9.09L521.2,32.06v51.3h-14.38V2.85
		l14.38,11.04l25.88,19.9l25.88-19.9L587.34,2.85z"/>
	<path class="st1" d="M665.09,9.29c3.91,4.03,6.33,9.43,6.33,15.41c0,8.74-5.18,16.33-12.65,19.78c-1.96,0.92-4.03,1.5-6.21,1.73
		c-0.23,0-0.46,0-0.69,0v0.12h-38.53v37.04h-14.38V2.85h50.72c5.98,0,11.39,2.42,15.3,6.33L665.09,9.29z M652.78,31.26
		c2.65-1.15,4.37-3.8,4.37-6.67c0-2.65-1.38-4.49-2.19-5.29c-0.92-0.92-2.65-2.07-5.18-2.07h-36.46v14.84h36.46
		c1.04,0,2.07-0.23,2.99-0.69V31.26z"/>
	<path class="st1" d="M682.8,83.36V2.85h14.38v80.51H682.8z"/>
	<path class="st1" d="M883.69,2.96v80.51l-14.38-11.04l-51.76-39.91v50.95h-14.38V3.19l14.38,11.04l51.76,39.91V2.85L883.69,2.96z"
		/>
	<g>
		<path class="st2" d="M124.18,23.38c0,1.44,0.31,2.81,0.85,4.06l1.56-1.56c-0.25-0.79-0.39-1.63-0.39-2.5
			c0-4.5,3.65-8.16,8.16-8.16c4.5,0,8.16,3.65,8.16,8.16c0,4.5-3.65,8.16-8.16,8.16c-0.28,0-0.55-0.01-0.82-0.04l-1.72,1.72
			c0.81,0.21,1.66,0.33,2.54,0.33c5.61,0,10.17-4.56,10.17-10.17c0-4.16-2.51-7.73-6.09-9.31l-0.03,0.27l-0.03-0.3
			c-1.23-0.53-2.59-0.83-4.02-0.83C128.74,13.2,124.18,17.77,124.18,23.38z"/>
		<path class="st2" d="M139.82,0.99l-0.59,5.52l-0.69,6.52c4.09,1.66,6.98,5.67,6.98,10.35c0,6.16-5.01,11.17-11.17,11.17
			c-1.17,0-2.3-0.18-3.36-0.52l-8.31,8.31l7.34,7.34c1.33-0.56,2.79-0.87,4.33-0.87c6.16,0,11.17,5.01,11.17,11.17
			s-5.01,11.17-11.17,11.17s-11.17-5.01-11.17-11.17c0-1.36,0.26-2.67,0.71-3.88l-7.49-7.49l-7.49,7.49
			c0.45,1.21,0.71,2.51,0.71,3.88c0,6.16-5.01,11.17-11.17,11.17s-11.17-5.01-11.17-11.17s5.01-11.17,11.17-11.17
			c1.53,0,2.99,0.31,4.33,0.87l7.34-7.34l-8.31-8.31c-1.06,0.33-2.19,0.52-3.36,0.52c-6.16,0-11.17-5.01-11.17-11.17
			S92.29,12.2,98.45,12.2s11.17,5.01,11.17,11.17c0,1.72-0.4,3.35-1.1,4.81l7.88,7.88l7.88-7.88c-0.7-1.46-1.1-3.08-1.1-4.81
			c0-6.16,5.01-11.17,11.17-11.17c1.37,0,2.68,0.26,3.9,0.72l-0.68-6.42l-0.66-6.18C135.6,0.12,134.25,0,132.88,0H99.92
			c-13.86,0-25.2,11.34-25.2,25.2v32.96c0,6.1,2.2,11.72,5.85,16.09l0.39-4.09l0.81-8.59l0.81,8.59l0.65,6.83
			c4.45,3.96,10.31,6.37,16.7,6.37h32.96c13.86,0,25.2-11.34,25.2-25.2V25.2C158.08,13.75,150.33,4.02,139.82,0.99z"/>
		<path class="st2" d="M134.35,70.16c5.61,0,10.17-4.56,10.17-10.17s-4.56-10.17-10.17-10.17c-1.25,0-2.44,0.24-3.55,0.65l1.61,1.61
			c0.62-0.15,1.27-0.24,1.94-0.24c4.5,0,8.16,3.65,8.16,8.16c0,4.5-3.65,8.16-8.16,8.16c-4.5,0-8.16-3.65-8.16-8.16
			c0-0.49,0.05-0.97,0.13-1.44l-1.66-1.66c-0.31,0.98-0.49,2.02-0.49,3.1C124.18,65.59,128.74,70.16,134.35,70.16z"/>
		<path class="st2" d="M107.77,27.43c0.54-1.24,0.85-2.62,0.85-4.06c0-5.61-4.56-10.17-10.17-10.17c-5.61,0-10.17,4.56-10.17,10.17
			s4.56,10.17,10.17,10.17c0.88,0,1.73-0.12,2.54-0.33l-1.72-1.72c-0.27,0.03-0.54,0.04-0.82,0.04c-4.5,0-8.16-3.65-8.16-8.16
			c0-4.5,3.65-8.16,8.16-8.16c4.5,0,8.16,3.65,8.16,8.16c0,0.87-0.14,1.71-0.39,2.5L107.77,27.43z"/>
		<path class="st2" d="M106.61,59.98c0,4.5-3.65,8.16-8.16,8.16c-4.5,0-8.16-3.65-8.16-8.16c0-4.5,3.65-8.16,8.16-8.16
			c0.67,0,1.32,0.09,1.94,0.24l1.61-1.61c-1.11-0.41-2.3-0.65-3.55-0.65c-5.61,0-10.17,4.56-10.17,10.17s4.56,10.17,10.17,10.17
			c5.61,0,10.17-4.56,10.17-10.17c0-1.08-0.17-2.12-0.49-3.1l-1.66,1.66C106.56,59.02,106.61,59.49,106.61,59.98z"/>
	</g>
	<g>
		<path class="st0" d="M757.96,23.38c0,1.44,0.31,2.81,0.85,4.06l1.56-1.56c-0.25-0.79-0.39-1.63-0.39-2.5
			c0-4.5,3.65-8.16,8.16-8.16s8.16,3.65,8.16,8.16c0,4.5-3.65,8.16-8.16,8.16c-0.28,0-0.55-0.01-0.82-0.04l-1.72,1.72
			c0.81,0.21,1.66,0.33,2.54,0.33c5.61,0,10.17-4.56,10.17-10.17c0-4.16-2.51-7.73-6.09-9.31l-0.03,0.27l-0.03-0.3
			c-1.23-0.53-2.59-0.83-4.02-0.83C762.52,13.2,757.96,17.77,757.96,23.38z"/>
		<path class="st0" d="M773.6,0.99l-0.59,5.52l-0.69,6.52c4.09,1.66,6.98,5.67,6.98,10.35c0,6.16-5.01,11.17-11.17,11.17
			c-1.17,0-2.3-0.18-3.36-0.52l-8.31,8.31l7.34,7.34c1.33-0.56,2.79-0.87,4.33-0.87c6.16,0,11.17,5.01,11.17,11.17
			s-5.01,11.17-11.17,11.17s-11.17-5.01-11.17-11.17c0-1.36,0.26-2.67,0.71-3.88l-7.49-7.49l-7.49,7.49
			c0.45,1.21,0.71,2.51,0.71,3.88c0,6.16-5.01,11.17-11.17,11.17s-11.17-5.01-11.17-11.17s5.01-11.17,11.17-11.17
			c1.53,0,2.99,0.31,4.33,0.87l7.34-7.34l-8.31-8.31c-1.06,0.33-2.19,0.52-3.36,0.52c-6.16,0-11.17-5.01-11.17-11.17
			s5.01-11.17,11.17-11.17s11.17,5.01,11.17,11.17c0,1.72-0.4,3.35-1.1,4.81l7.88,7.88l7.88-7.88c-0.7-1.46-1.1-3.08-1.1-4.81
			c0-6.16,5.01-11.17,11.17-11.17c1.37,0,2.68,0.26,3.9,0.72l-0.68-6.42l-0.66-6.18C769.38,0.12,768.03,0,766.66,0H733.7
			c-13.86,0-25.2,11.34-25.2,25.2v32.96c0,6.1,2.2,11.72,5.85,16.09l0.39-4.09l0.81-8.59l0.81,8.59l0.65,6.83
			c4.45,3.96,10.31,6.37,16.7,6.37h32.96c13.86,0,25.2-11.34,25.2-25.2V25.2C791.86,13.75,784.11,4.02,773.6,0.99z"/>
		<path class="st0" d="M768.13,70.16c5.61,0,10.17-4.56,10.17-10.17s-4.56-10.17-10.17-10.17c-1.25,0-2.44,0.24-3.55,0.65l1.61,1.61
			c0.62-0.15,1.27-0.24,1.94-0.24c4.5,0,8.16,3.65,8.16,8.16c0,4.5-3.65,8.16-8.16,8.16s-8.16-3.65-8.16-8.16
			c0-0.49,0.05-0.97,0.13-1.44l-1.66-1.66c-0.31,0.98-0.49,2.02-0.49,3.1C757.96,65.59,762.52,70.16,768.13,70.16z"/>
		<path class="st0" d="M741.55,27.43c0.54-1.24,0.85-2.62,0.85-4.06c0-5.61-4.56-10.17-10.17-10.17c-5.61,0-10.17,4.56-10.17,10.17
			s4.56,10.17,10.17,10.17c0.88,0,1.73-0.12,2.54-0.33l-1.72-1.72c-0.27,0.03-0.54,0.04-0.82,0.04c-4.5,0-8.16-3.65-8.16-8.16
			c0-4.5,3.65-8.16,8.16-8.16s8.16,3.65,8.16,8.16c0,0.87-0.14,1.71-0.39,2.5L741.55,27.43z"/>
		<path class="st0" d="M740.38,59.98c0,4.5-3.65,8.16-8.16,8.16s-8.16-3.65-8.16-8.16c0-4.5,3.65-8.16,8.16-8.16
			c0.67,0,1.32,0.09,1.94,0.24l1.61-1.61c-1.11-0.41-2.3-0.65-3.55-0.65c-5.61,0-10.17,4.56-10.17,10.17s4.56,10.17,10.17,10.17
			c5.61,0,10.17-4.56,10.17-10.17c0-1.08-0.17-2.12-0.49-3.1l-1.66,1.66C740.33,59.02,740.38,59.49,740.38,59.98z"/>
	</g>
</g>
</svg>
